<svg width="18" height="21" viewBox="0 0 18 21" fill="none" xmlns="http://www.w3.org/2000/svg">
<path d="M0 4.0752C0 2.9752 0.9 2.0752 2 2.0752H16C16.5304 2.0752 17.0391 2.28591 17.4142 2.66098C17.7893 3.03605 18 3.54476 18 4.0752V18.0752C18 18.6056 17.7893 19.1143 17.4142 19.4894C17.0391 19.8645 16.5304 20.0752 16 20.0752H2C1.46957 20.0752 0.960859 19.8645 0.585786 19.4894C0.210714 19.1143 0 18.6056 0 18.0752V4.0752ZM2 6.0752V18.0752H16V6.0752H2ZM4 0.0751953H6V2.0752H4V0.0751953ZM12 0.0751953H14V2.0752H12V0.0751953ZM4 9.0752H6V11.0752H4V9.0752ZM4 13.0752H6V15.0752H4V13.0752ZM8 9.0752H10V11.0752H8V9.0752ZM8 13.0752H10V15.0752H8V13.0752ZM12 9.0752H14V11.0752H12V9.0752ZM12 13.0752H14V15.0752H12V13.0752Z" fill="#0499DD"/>
</svg>
