<svg width="22" height="22" viewBox="0 0 22 22" fill="none" xmlns="http://www.w3.org/2000/svg">
<path d="M14.2268 6.48265C16.7217 6.48265 18.7441 5.76033 18.7441 4.86931C18.7441 3.9783 16.7217 3.25598 14.2268 3.25598C11.732 3.25598 9.70947 3.9783 9.70947 4.86931C9.70947 5.76033 11.732 6.48265 14.2268 6.48265Z" stroke="#0499DD" stroke-width="0.6" stroke-miterlimit="10" stroke-linecap="round" stroke-linejoin="round"/>
<path d="M9.70947 5.19208C9.70947 5.48635 9.70947 6.83381 9.70947 7.12808C9.70947 8.01896 11.7313 8.74141 14.2268 8.74141C16.7223 8.74141 18.7441 8.01896 18.7441 7.12808C18.7441 6.83381 18.7441 5.48635 18.7441 5.19208" stroke="#0499DD" stroke-width="0.6" stroke-miterlimit="10" stroke-linecap="round" stroke-linejoin="round"/>
<path d="M12.1455 10.8189C12.7683 10.9345 13.4762 11 14.2267 11C16.7222 11 18.744 10.2775 18.744 9.38662C18.744 9.09235 18.744 7.74489 18.744 7.45062" stroke="#0499DD" stroke-width="0.6" stroke-miterlimit="10" stroke-linecap="round" stroke-linejoin="round"/>
<path d="M9.70947 7.45062C9.70947 7.74489 9.70947 8.82841 9.70947 8.82841" stroke="#0499DD" stroke-width="0.6" stroke-miterlimit="10" stroke-linecap="round" stroke-linejoin="round"/>
<path d="M12.2988 13.1048C12.8835 13.2035 13.5369 13.2587 14.2268 13.2587C16.7223 13.2587 18.7441 12.5366 18.7441 11.6453C18.7441 11.3511 18.7441 10.0036 18.7441 9.70935" stroke="#0499DD" stroke-width="0.6" stroke-miterlimit="10" stroke-linecap="round" stroke-linejoin="round"/>
<path d="M12.2739 15.3593C12.8647 15.4606 13.5272 15.5174 14.2267 15.5174C16.7222 15.5174 18.744 14.7953 18.744 13.9041C18.744 13.6098 18.744 12.2624 18.744 11.9681" stroke="#0499DD" stroke-width="0.6" stroke-miterlimit="10" stroke-linecap="round" stroke-linejoin="round"/>
<path d="M7.77319 11.9679C10.268 11.9679 12.2905 11.2456 12.2905 10.3546C12.2905 9.46359 10.268 8.74127 7.77319 8.74127C5.27834 8.74127 3.25586 9.46359 3.25586 10.3546C3.25586 11.2456 5.27834 11.9679 7.77319 11.9679Z" stroke="#0499DD" stroke-width="0.6" stroke-miterlimit="10" stroke-linecap="round" stroke-linejoin="round"/>
<path d="M3.25586 10.6774C3.25586 10.9716 3.25586 12.3191 3.25586 12.6134C3.25586 13.5046 5.27769 14.2267 7.77319 14.2267C10.2687 14.2267 12.2905 13.5046 12.2905 12.6134C12.2905 12.3191 12.2905 10.9716 12.2905 10.6774" stroke="#0499DD" stroke-width="0.6" stroke-miterlimit="10" stroke-linecap="round" stroke-linejoin="round"/>
<path d="M3.25586 12.9359C3.25586 13.2302 3.25586 14.5776 3.25586 14.8719C3.25586 15.7631 5.27769 16.4852 7.77319 16.4852C10.2687 16.4852 12.2905 15.7631 12.2905 14.8719C12.2905 14.5776 12.2905 13.2302 12.2905 12.9359" stroke="#0499DD" stroke-width="0.6" stroke-miterlimit="10" stroke-linecap="round" stroke-linejoin="round"/>
<path d="M3.25586 15.1946C3.25586 15.4889 3.25586 16.8364 3.25586 17.1306C3.25586 18.0218 5.27769 18.744 7.77319 18.744C10.2687 18.744 12.2905 18.0218 12.2905 17.1306C12.2905 16.8364 12.2905 15.4889 12.2905 15.1946" stroke="#0499DD" stroke-width="0.6" stroke-miterlimit="10" stroke-linecap="round" stroke-linejoin="round"/>
</svg>
