<svg width="23" height="24" viewBox="0 0 23 24" fill="none" xmlns="http://www.w3.org/2000/svg">
<path d="M15.8123 13.4917C14.3748 13.4917 13.2248 13.875 12.3623 14.3542C13.704 15.5042 14.279 16.8459 14.3748 16.9417L14.4706 17.1334V19.2417H22.1373V17.325C22.0415 17.325 20.5081 13.4917 15.8123 13.4917Z" fill="#0499DD"/>
<path d="M15.8122 11.575C17.6646 11.575 19.1663 10.0733 19.1663 8.22087C19.1663 6.36841 17.6646 4.8667 15.8122 4.8667C13.9597 4.8667 12.458 6.36841 12.458 8.22087C12.458 10.0733 13.9597 11.575 15.8122 11.575Z" fill="#0499DD"/>
<path d="M3.83301 8.22087C3.83301 6.40003 5.36634 4.8667 7.18718 4.8667C9.00801 4.8667 10.5413 6.40003 10.5413 8.22087C10.5413 10.0417 9.00801 11.575 7.18718 11.575C5.36634 11.575 3.83301 10.0417 3.83301 8.22087ZM7.18718 13.4917C2.49134 13.4917 0.958008 17.325 0.958008 17.325V19.2417H13.4163V17.325C13.4163 17.325 11.883 13.4917 7.18718 13.4917Z" fill="#0499DD"/>
</svg>
